<svg width="54" height="80" viewBox="0 0 54 80" fill="none" xmlns="http://www.w3.org/2000/svg">
<path d="M25.9688 45.5938H15.2812V64H9.25V18.5H24.3125C29.4375 18.5 33.375 19.6667 36.125 22C38.8958 24.3333 40.2812 27.7292 40.2812 32.1875C40.2812 35.0208 39.5104 37.4896 37.9688 39.5938C36.4479 41.6979 34.3229 43.2708 31.5938 44.3125L42.2812 63.625V64H35.8438L25.9688 45.5938ZM15.2812 40.6875H24.5C27.4792 40.6875 29.8438 39.9167 31.5938 38.375C33.3646 36.8333 34.25 34.7708 34.25 32.1875C34.25 29.375 33.4062 27.2188 31.7188 25.7188C30.0521 24.2188 27.6354 23.4583 24.4688 23.4375H15.2812V40.6875Z" fill="black"/>
<path d="M23.5625 39.5312H7.78125V59H6.09375V13.5H20.5938C25.1562 13.5 28.7812 14.6771 31.4688 17.0312C34.1771 19.3854 35.5312 22.5833 35.5312 26.625C35.5312 29.7292 34.5625 32.4479 32.625 34.7812C30.7083 37.0938 28.2604 38.5312 25.2812 39.0938L37.4375 58.5625V59H35.6562L23.5625 39.5312ZM7.78125 37.8438H22.125C25.625 37.8438 28.4479 36.7812 30.5938 34.6562C32.7604 32.5312 33.8438 29.8542 33.8438 26.625C33.8438 23.0833 32.6458 20.2917 30.25 18.25C27.875 16.2083 24.6146 15.1875 20.4688 15.1875H7.78125V37.8438Z" fill="black"/>
</svg>
